PathFileType	4	(X/Y/Z)	C:\Users\xlb\Desktop\20210112\20210112\bx_n_10_901.trc
DataRate	CameraRate	NumFrames	NumMarkers	Units	OrigDataRate	OrigDataStartFrame	OrigNumFrames
50.00	50.00	       8	43	mm	50.00	65	       518
Frame#	Time	Top.Head			R.Acromium			L.Acromium			Sternum			R.ASIS			L.ASIS			V.Sacral			R.Thigh.Upper			R.Thigh.Front			R.Thigh.Rear			R.Knee.Lat			R.Knee.Med			R.Shank.Upper			R.Shank.Front			R.Shank.Rear			R.Ankle.Lat			R.Midfoot.Lat			R.Toe.Lat			R.Toe.Tip			R.Toe.Med			R.Ankle.Med			R.Midfoot.Sup			R.Heel			L.Thigh.Upper			L.Thigh.Front			L.Thigh.Rear			L.Knee.Lat			L.Knee.Med			L.Shank.Upper			L.Shank.Front			L.Shank.Rear			L.Ankle.Lat			L.Midfoot.Lat			L.Toe.Lat			L.Toe.Tip			L.Toe.Med			L.Ankle.Med			L.Midfoot.Sup			L.Heel			origin1 front left			origin2 front right			origin 3 back right			origin 4 back leftt			
		X1	Y1	Z1	X2	Y2	Z2	X3	Y3	Z3	X4	Y4	Z4	X5	Y5	Z5	X6	Y6	Z6	X7	Y7	Z7	X8	Y8	Z8	X9	Y9	Z9	X10	Y10	Z10	X11	Y11	Z11	X12	Y12	Z12	X13	Y13	Z13	X14	Y14	Z14	X15	Y15	Z15	X16	Y16	Z16	X17	Y17	Z17	X18	Y18	Z18	X19	Y19	Z19	X20	Y20	Z20	X21	Y21	Z21	X22	Y22	Z22	X23	Y23	Z23	X24	Y24	Z24	X25	Y25	Z25	X26	Y26	Z26	X27	Y27	Z27	X28	Y28	Z28	X29	Y29	Z29	X30	Y30	Z30	X31	Y31	Z31	X32	Y32	Z32	X33	Y33	Z33	X34	Y34	Z34	X35	Y35	Z35	X36	Y36	Z36	X37	Y37	Z37	X38	Y38	Z38	X39	Y39	Z39	X40	Y40	Z40	X41	Y41	Z41	X42	Y42	Z42	X43	Y43	Z43	

65	1.280	-139.63162	90.30634	1291.87598	-375.94873	-67.60278	1130.29553	-390.92776	261.62753	1145.48047	-524.03918	97.22060	1019.84558	-780.57080	-7.82271	984.90118	-777.70941	237.18024	1007.17621	-950.25073	92.52245	1092.04309	-855.11920	-75.65749	859.62976	-762.80640	-6.87912	807.99860	-845.23853	-63.53532	744.67126	-824.22705	-35.92677	607.85785	-803.02234	70.03799	564.90741	-818.55981	-33.49773	559.75916	-755.94470	16.70580	526.30316	-838.26752	-47.19553	472.01010	-763.49860	-21.81574	201.85568	-648.99249	-68.82461	160.60088	-606.91907	-76.10852	156.75288	-548.79230	-26.42904	163.17195	-597.21051	25.56010	168.00012	-725.15143	65.92597	220.14250	-671.82343	51.61108	163.02374	-792.62982	37.89418	171.16687	-875.97156	290.21524	863.21069	-766.33331	213.32356	815.13306	-848.54340	283.39508	728.10315	-847.28461	254.64545	624.15216	-791.77478	146.53059	571.02148	-830.30682	249.59732	563.27185	-765.87390	209.27437	536.64392	-849.97839	261.84500	483.56378	-772.39197	231.63921	200.95477	-658.82690	299.83453	156.38132	-622.37286	307.59079	157.64275	-555.74109	254.18196	163.44940	-592.45551	220.21698	174.47096	-719.57343	159.70766	221.94742	-674.93341	176.06166	163.52008	-797.42334	182.86736	180.09447	-528.01617	303.94775	146.33852	-518.16083	-72.58685	142.75186	-875.87061	-78.61342	141.29375	-882.59021	296.05624	144.72389	
66	1.300	-135.84277	89.75552	1270.86328	-372.03189	-67.33527	1113.56165	-386.14474	259.94315	1128.40515	-522.93750	96.76567	1009.43518	-782.61145	-8.14266	982.22913	-779.23096	236.65610	1004.32031	-950.29932	92.45427	1092.51355	-857.87976	-75.72482	859.00305	-765.29791	-6.96150	807.62494	-847.71753	-63.63800	744.07629	-826.01868	-35.93451	607.50104	-804.50098	70.56179	564.92755	-820.16345	-33.49146	559.37219	-757.50415	16.74232	526.17657	-839.50891	-47.17546	471.60562	-763.52307	-21.83555	201.75027	-648.96411	-68.81083	160.61749	-606.89429	-76.08726	156.72575	-548.78864	-26.35890	163.13702	-597.22632	25.61691	167.93126	-725.31696	65.91436	220.22276	-671.86163	51.57471	163.01079	-792.69727	37.86535	171.15613	-878.16016	290.27206	862.89801	-768.62292	213.00813	814.61261	-850.36798	283.52328	727.66003	-848.76294	254.77673	623.80652	-793.51678	146.48175	570.69196	-831.61316	249.69002	562.97205	-767.21997	209.13066	536.55786	-850.93158	262.04651	483.23523	-772.41071	231.76286	200.96220	-658.82050	299.80069	156.41283	-622.33472	307.45486	157.70343	-555.77155	254.07176	163.40109	-592.51709	220.08568	174.41121	-719.75598	159.80382	222.04105	-675.02301	176.15350	163.59901	-797.47675	182.95268	180.06375	-528.01202	303.96844	146.34778	-518.19696	-72.48908	142.69250	-875.87195	-78.61569	141.30907	-882.59180	296.05798	144.71761	
67	1.320	-132.46497	89.19780	1250.61438	-368.29797	-67.18261	1097.37732	-381.97672	258.31207	1111.99792	-521.93872	96.29358	999.36548	-784.37085	-8.44670	979.66309	-780.51447	236.07495	1001.55865	-950.10828	92.33203	1092.99512	-860.36047	-75.83734	858.40350	-767.52960	-7.10015	807.24548	-849.94971	-63.77663	743.53479	-827.66296	-35.91513	607.15576	-805.76196	71.11201	565.00238	-821.63458	-33.46350	558.99921	-758.92346	16.74923	526.04138	-840.66406	-47.08850	471.21460	-763.53662	-21.79698	201.65500	-648.95483	-68.79743	160.62827	-606.88519	-76.07220	156.69389	-548.77765	-26.31958	163.09331	-597.23859	25.65981	167.85391	-725.42432	65.92508	220.29590	-671.86920	51.55844	163.00166	-792.76373	37.88831	171.16515	-880.00061	290.32147	862.65857	-770.57690	212.67529	814.14777	-851.87299	283.62106	727.29504	-849.93561	254.91196	623.55426	-795.03027	146.38370	570.39783	-832.63556	249.77348	562.76221	-768.33331	208.91933	536.48907	-851.62543	262.25327	482.98309	-772.40991	231.88380	200.96793	-658.80389	299.75549	156.47954	-622.26544	307.31393	157.79352	-555.80682	253.95213	163.33241	-592.57452	219.93835	174.32869	-719.92719	159.85989	222.13550	-675.13147	176.20427	163.62924	-797.54095	183.09792	180.01402	-528.00629	303.98318	146.35374	-518.22064	-72.41936	142.63899	-875.87939	-78.62479	141.32617	-882.59229	296.06226	144.71530	
68	1.340	-129.46289	88.65971	1231.25830	-364.70178	-67.18966	1081.82349	-378.44629	256.75098	1096.30005	-521.03528	95.80350	989.63806	-785.90576	-8.72250	977.20142	-781.56897	235.42406	998.89722	-949.69995	92.15950	1093.48950	-862.55597	-76.00265	857.84613	-769.50299	-7.29459	806.86798	-851.91846	-63.95515	743.06244	-829.13580	-35.87217	606.83179	-806.80798	71.66589	565.12372	-822.94977	-33.42040	558.65643	-760.17212	16.72845	525.90735	-841.71057	-46.94125	470.83939	-763.54633	-21.70780	201.57735	-648.96283	-68.78096	160.63185	-606.89093	-76.06483	156.65643	-548.76398	-26.30977	163.04921	-597.24731	25.69121	167.77245	-725.47473	65.95539	220.36230	-671.84576	51.56403	162.99283	-792.81982	37.95715	171.18665	-881.49066	290.35638	862.49158	-772.19592	212.30540	813.74518	-853.05505	283.68018	727.00543	-850.81061	255.02988	623.38330	-796.30658	146.22569	570.15137	-833.37561	249.83310	562.63446	-769.21338	208.63441	536.43500	-852.07611	262.44980	482.80573	-772.38965	231.99532	200.96805	-658.76953	299.69711	156.58240	-622.16547	307.18015	157.91066	-555.84143	253.82742	163.24702	-592.61664	219.77921	174.22691	-720.08649	159.87764	222.22234	-675.24963	176.21150	163.60327	-797.61285	183.30676	179.94690	-528.00116	303.98941	146.35536	-518.22870	-72.38401	142.60056	-875.89233	-78.64081	141.34557	-882.59247	296.06927	144.71701	
69	1.360	-126.80536	88.16665	1212.91663	-361.20139	-67.38835	1066.96582	-375.53799	255.27318	1081.33740	-520.22205	95.29559	980.25299	-787.27386	-8.95998	974.83899	-782.40503	234.70007	996.34399	-949.09741	91.93929	1093.99268	-864.45532	-76.22330	857.34607	-771.21838	-7.53094	806.50201	-853.60974	-64.17201	742.67017	-830.40991	-35.81358	606.54126	-807.63898	72.19944	565.28400	-824.08228	-33.37006	558.35992	-761.21704	16.68944	525.78632	-842.62268	-46.74865	470.48706	-763.55511	-21.58106	201.52107	-648.98328	-68.75793	160.62968	-606.90753	-76.06528	156.61349	-548.75079	-26.32443	163.01192	-597.25153	25.71590	167.69131	-725.47589	66.00299	220.42377	-671.79547	51.59020	162.98254	-792.85608	38.06216	171.21211	-882.64630	290.36627	862.39221	-773.49628	211.88033	813.41144	-853.92938	283.69092	726.78638	-851.41370	255.10902	623.27563	-797.35413	146.00383	569.95856	-833.85455	249.85387	562.57404	-769.87537	208.27618	536.39191	-852.31989	262.61914	482.69754	-772.35284	232.09070	200.96202	-658.71307	299.62360	156.71860	-622.04089	307.06070	158.04897	-555.87170	253.70273	163.15218	-592.63629	219.61171	174.10999	-720.23254	159.86015	222.29359	-675.36816	176.17773	163.52110	-797.68689	183.56520	179.87105	-527.99817	303.98611	146.35342	-518.22009	-72.38480	142.58403	-875.90857	-78.66265	141.36687	-882.59271	296.07825	144.72157	
70	1.380	-124.46375	87.73848	1195.69250	-357.76407	-67.79462	1052.84851	-373.19675	253.88797	1067.12708	-519.49615	94.77075	971.20911	-788.52875	-9.15301	972.56848	-783.03485	233.91042	993.90997	-948.32507	91.67174	1094.49634	-866.04816	-76.49741	856.91492	-772.67682	-7.78845	806.15942	-855.01538	-64.42271	742.36267	-831.46106	-35.75246	606.29681	-808.25415	72.68668	565.47589	-825.00781	-33.32143	558.12183	-762.03320	16.64447	525.68945	-843.37628	-46.53354	470.16885	-763.56207	-21.43323	201.48602	-649.00977	-68.72601	160.62547	-606.92877	-76.07240	156.56609	-548.73914	-26.35583	162.98604	-597.24969	25.73972	167.61459	-725.44061	66.06450	220.48172	-671.72662	51.63336	162.97197	-792.86517	38.19058	171.23407	-883.50208	290.33810	862.35138	-774.50983	211.38805	813.15051	-854.52997	283.64398	726.63165	-851.78589	255.13040	623.21002	-798.19470	145.72090	569.81763	-834.11139	249.82138	562.56195	-770.34711	207.85254	536.35577	-852.40857	262.74255	482.64960	-772.30493	232.16333	200.95204	-658.63525	299.53363	156.88164	-621.90314	306.95642	158.19913	-555.89642	253.58282	163.05708	-592.63196	219.43950	173.98230	-720.36395	159.81056	222.34294	-675.47870	176.10970	163.39069	-797.75531	183.84396	179.79810	-527.99792	303.97394	146.34979	-518.19659	-72.41841	142.59177	-875.92450	-78.68811	141.38858	-882.59326	296.08765	144.72705	
71	1.400	-122.41144	87.38696	1179.66089	-354.37000	-68.40923	1039.49341	-371.33353	252.59946	1053.68311	-518.85608	94.23042	962.50464	-789.71649	-9.30015	970.38263	-783.47302	233.07153	991.60901	-947.40863	91.35451	1094.98950	-867.33020	-76.82018	856.55884	-773.88275	-8.04756	805.85400	-856.13550	-64.70263	742.13782	-832.27521	-35.70644	606.10919	-808.65405	73.10046	565.69257	-825.71106	-33.28426	557.94745	-762.61237	16.60357	525.62488	-843.95355	-46.32441	469.89804	-763.56317	-21.28151	201.46877	-649.03558	-68.68475	160.62402	-606.94739	-76.08388	156.51605	-548.72852	-26.39496	162.97282	-597.24030	25.76793	167.54575	-725.38379	66.13457	220.53578	-671.64941	51.68863	162.96465	-792.84363	38.32794	171.24783	-884.10681	290.25839	862.35706	-775.27942	210.82529	812.96124	-854.90527	283.53293	726.53381	-851.97705	255.07970	623.16571	-798.85687	145.38458	569.71924	-834.19708	249.72365	562.57813	-770.66431	207.37851	536.32397	-852.40009	262.80096	482.65082	-772.25317	232.20738	200.94214	-658.54205	299.42719	157.06221	-621.76703	306.86246	158.34979	-555.91718	253.47107	162.97116	-592.60773	219.26697	173.84839	-720.47974	159.73143	222.36617	-675.57428	176.01660	163.22673	-797.81030	184.10567	179.73796	-528.00031	303.95502	146.34665	-518.16296	-72.47684	142.62091	-875.93640	-78.71402	141.40823	-882.59375	296.09564	144.73154	
72	1.420	-120.62201	87.11532	1164.86108	-351.01233	-69.22138	1026.90234	-369.83768	251.40475	1041.01953	-518.30078	93.67611	954.13733	-790.87286	-9.40464	968.27594	-783.73755	232.20480	989.45703	-946.37549	90.98304	1095.45935	-868.30859	-77.18616	856.27747	-774.84546	-8.29717	805.60022	-856.98010	-65.00932	741.98688	-832.85260	-35.69530	605.98413	-808.84430	73.41483	565.92792	-826.19061	-33.26860	557.83392	-762.96716	16.57101	525.59583	-844.34772	-46.15175	469.68646	-763.55334	-21.14066	201.46359	-649.05505	-68.63583	160.62971	-606.95630	-76.09685	156.46562	-548.71680	-26.43317	162.97058	-597.22223	25.80406	167.48772	-725.31940	66.20604	220.58307	-671.57422	51.75097	162.96501	-792.79187	38.45996	171.25243	-884.51593	290.11569	862.39636	-775.85364	210.19742	812.83691	-855.10938	283.35605	726.48541	-852.03748	254.94897	623.12634	-799.36975	145.00450	569.64911	-834.16547	249.55313	562.60541	-770.86365	206.87355	536.29645	-852.34778	262.77728	482.68954	-772.20563	232.21893	200.93700	-658.44354	299.30603	157.24957	-621.64813	306.77054	158.48967	-555.93768	253.36893	162.90242	-592.57202	219.09911	173.71303	-720.58044	159.62500	222.36110	-675.64966	175.90836	163.04781	-797.84589	184.31416	179.69545	-528.00458	303.93250	146.34554	-518.12585	-72.54889	142.66420	-875.94122	-78.73681	141.42270	-882.59363	296.10062	144.73364	
